<svg version="1.2" xmlns="http://www.w3.org/2000/svg" viewBox="0 0 24 24" width="24" height="24">
	<title>trash-svg</title>
	<style>
		.s0 { fill: none } 
		.s1 { fill: none;stroke: #ff0000;stroke-linecap: round;stroke-miterlimit:100;stroke-width: 2 } 
	</style>
	<path fill-rule="evenodd" class="s0" d="m0 0h24v24h-24z"/>
	<path class="s1" d="m4 7h16"/>
	<path class="s1" d="m10 11v6"/>
	<path class="s1" d="m14 11v6"/>
	<path fill-rule="evenodd" class="s1" d="m5 7l1 12q0 0.4 0.2 0.8 0.1 0.3 0.4 0.6 0.3 0.3 0.6 0.4 0.4 0.2 0.8 0.2h8q0.4 0 0.8-0.2 0.3-0.1 0.6-0.4 0.3-0.3 0.4-0.6 0.2-0.4 0.2-0.8l1-12"/>
	<path fill-rule="evenodd" class="s1" d="m9 7v-3q0-0.2 0.1-0.4 0.1-0.2 0.2-0.3 0.1-0.1 0.3-0.2 0.2-0.1 0.4-0.1h4q0.2 0 0.4 0.1 0.2 0.1 0.3 0.2 0.1 0.1 0.2 0.3 0.1 0.2 0.1 0.4v3"/>
</svg>